<?xml version="1.0" encoding="utf-8"?>
<!-- Generator: Adobe Illustrator 27.6.0, SVG Export Plug-In . SVG Version: 6.00 Build 0)  -->
<svg version="1.1" xmlns="http://www.w3.org/2000/svg" xmlns:xlink="http://www.w3.org/1999/xlink" x="0px" y="0px"
	 viewBox="0 0 30.5 29.6" style="enable-background:new 0 0 30.5 29.6;" xml:space="preserve">
<style type="text/css">
	.st0{fill:none;stroke:#2B2B2B;stroke-width:1.9504;stroke-linecap:round;stroke-miterlimit:10;}
	.st1{fill:none;stroke:#2B2B2B;stroke-width:1.9504;stroke-miterlimit:10;}
	.st2{display:none;}
	.st3{display:inline;fill:none;stroke:#2B2B2B;stroke-width:1.9504;stroke-linecap:round;stroke-miterlimit:10;}
	.st4{display:inline;fill:none;stroke:#2B2B2B;stroke-width:1.8329;stroke-linecap:round;stroke-miterlimit:10;}
</style>
<g id="Layer_2_00000160900262736308803360000003831386022199287462_">
	<line class="st0" x1="1.5" y1="1.1" x2="29" y2="28.5"/>
	<path class="st0" d="M7.4,6.9c0,0,3.6-2.3,7.8-2.3s11.6,2.2,13.3,9c1.7,6.7-5.5,9-5.5,9"/>
	<path class="st0" d="M4.7,9.1c0,0-2.8,1.9-2.8,6.1c0,4.4,3.5,6.6,5.6,7.7c2.7,1.5,6.9,2,11.6,1.1"/>
	<path class="st1" d="M12,11.5c0,0,3.5-2.9,6.3-0.2c2.7,2.5,0.7,6,0,6.5"/>
</g>
<g id="Layer_3" class="st2">
	<path class="st3" d="M3,18.6c-1-1.7-1.5-3.7-0.8-5.6C3.6,9.8,7,4.7,15.5,4.6c9.4-0.1,13.2,7.3,13.2,10.8c0,4.1-4.8,9.1-13.2,9.4
		C9.4,25,4.7,21.5,3,18.6z"/>
	<circle class="st4" cx="15.3" cy="14.5" r="4.5"/>
</g>
</svg>
