<?xml version="1.0" encoding="UTF-8"?>
<svg id="Layer_1" data-name="Layer 1" xmlns="http://www.w3.org/2000/svg" viewBox="0 0 19.6 21">
  <defs>
    <style>
      .cls-1 {
        fill: none;
        stroke: #2b2c2b;
        stroke-linecap: round;
        stroke-linejoin: round;
        stroke-width: 1.5px;
      }
    </style>
  </defs>
  <circle class="cls-1" cx="9.8" cy="10.5" r="3"/>
  <path class="cls-1" d="m18.6,6.3l-.8-1.3c-.4-.7-1.3-1-2.1-.6l-.4.2c-1.5.9-3.4-.2-3.4-2v-.5c0-.8-.7-1.5-1.5-1.5h-1.5c-.8,0-1.5.7-1.5,1.5v.5c0,1.7-1.9,2.8-3.4,2l-.4-.2c-.7-.4-1.6-.2-2.1.6l-.8,1.3c-.4.7-.2,1.6.6,2.1l.4.2c1.5.9,1.5,3,0,3.9l-.4.2c-.7.4-1,1.3-.6,2.1l.8,1.3c.4.7,1.3,1,2.1.6l.4-.2c1.5-.9,3.4.2,3.4,2v.5c0,.8.7,1.5,1.5,1.5h1.5c.8,0,1.5-.7,1.5-1.5v-.5c0-1.7,1.9-2.8,3.4-2l.4.2c.7.4,1.6.2,2.1-.6l.8-1.3c.4-.7.2-1.6-.6-2.1l-.4-.2c-1.5-.9-1.5-3,0-3.9l.4-.2c.7-.4,1-1.3.6-2.1Z"/>
</svg>